<?xml version="1.0" encoding="UTF-8"?><svg id="Calque_1" xmlns="http://www.w3.org/2000/svg" viewBox="0 0 1352.31 731.61"><defs><style>.cls-1{fill:#2e2109;}</style></defs><g><path class="cls-1" d="M17.85,367.88H84.78c18.24-.2,33.51,6.3,45.81,19.48,12.29,13.19,18.44,28.21,18.44,45.07,0,10.51-2.48,20.53-7.44,30.04-4.96,9.52-11.7,17.06-20.23,22.61,9.32,5.35,16.81,13.34,22.46,23.95,5.65,10.61,8.48,21.27,8.48,31.98,0,17.85-6.3,33.12-18.89,45.81-12.6,12.69-27.72,19.04-45.36,19.04H17.85v-237.98Zm16.66,16.36v94.3h61.28c10.31-.2,18.99-5.06,26.03-14.58,7.04-9.52,10.56-20.03,10.56-31.53,0-13.28-4.66-24.59-13.98-33.91-9.32-9.32-20.53-13.98-33.61-13.98h-9.82v-.3H34.51Zm0,110.66v94.3h53.55c13.09,0,24.34-4.71,33.76-14.13,9.42-9.42,14.13-20.77,14.13-34.06,0-11.5-3.57-22.06-10.71-31.68-7.14-9.62-15.87-14.43-26.18-14.43H34.51Z"/><path class="cls-1" d="M377.79,605.86h-18.15l-23.5-52.65H196.63l-23.8,52.65h-18.15l111.85-246.9,111.25,246.9Zm-173.72-69.01h124.64l-62.17-137.73-62.47,137.73Z"/><path class="cls-1" d="M397.72,367.88h67.23c20.42,0,37.88,7.29,52.36,21.86,14.47,14.58,21.72,32.08,21.72,52.5,0,16.86-5.06,31.88-15.17,45.07-10.11,13.19-23.11,22.06-38.97,26.62l60.98,91.92h-19.93l-58.9-89.24h-52.65v89.24h-16.66v-237.98Zm16.66,16.66v115.42h50.27c15.86,0,29.45-5.65,40.75-16.96s16.96-24.89,16.96-40.75-5.65-29.45-16.96-40.75c-11.3-11.3-24.89-16.96-40.75-16.96h-50.27Z"/><path class="cls-1" d="M759.45,565.7l11.6,11.6c-24.99,24.99-55.13,37.48-90.43,37.48s-65.44-12.49-90.43-37.48c-24.99-24.99-37.48-55.13-37.48-90.43s12.49-65.44,37.48-90.43c24.99-24.99,55.13-37.48,90.43-37.48s65.44,12.49,90.43,37.48l-11.6,11.6c-21.82-21.81-48.09-32.72-78.83-32.72s-57.02,10.91-78.83,32.72-32.72,48.09-32.72,78.83,10.9,57.02,32.72,78.83c21.81,21.82,48.09,32.72,78.83,32.72s57.01-10.9,78.83-32.72Z"/><path class="cls-1" d="M994.75,605.86h-18.15l-23.5-52.65h-139.51l-23.8,52.65h-18.15l111.85-246.9,111.25,246.9Zm-173.72-69.01h124.64l-62.17-137.73-62.47,137.73Z"/><path class="cls-1" d="M1015.28,367.88h47.89c32.92,0,60.98,11.6,84.18,34.8s34.8,51.27,34.8,84.19-11.6,60.98-34.8,84.18c-23.2,23.2-51.27,34.8-84.18,34.8h-47.89v-237.98Zm16.66,16.66v204.66h31.24c28.36,0,52.55-10.01,72.58-30.04s30.04-44.12,30.04-72.29-10.02-52.25-30.04-72.29c-20.03-20.03-44.23-30.04-72.58-30.04h-31.24Z"/><path class="cls-1" d="M1334.17,384.54h-107.39v94h90.73v16.66h-90.73v94h107.39v16.66h-124.05v-237.98h124.05v16.66Z"/></g><g><path class="cls-1" d="M288.64,693.08l4.57-1.02c.28,2.71,1.38,4.97,3.3,6.77,1.92,1.81,4.15,2.71,6.69,2.71s4.84-.94,6.73-2.84c1.89-1.89,2.84-4.13,2.84-6.73,0-1.81-.51-3.53-1.52-5.17-.73-1.13-1.67-1.96-2.79-2.5-1.13-.54-3.08-1.17-5.84-1.91-1.81-.51-3.11-.9-3.9-1.19-.79-.28-1.74-.79-2.84-1.52-1.1-.73-1.99-1.64-2.67-2.71-1.24-1.98-1.86-4.12-1.86-6.44,0-3.22,1.16-5.98,3.47-8.3,2.31-2.31,5.11-3.47,8.38-3.47,2.88,0,5.42,.93,7.62,2.79,2.2,1.86,3.53,4.18,3.98,6.94l-4.57,.93c-.28-1.69-1.09-3.12-2.41-4.28-1.33-1.16-2.87-1.74-4.61-1.74-1.98,0-3.67,.69-5.08,2.07-1.41,1.38-2.12,3.06-2.12,5.04,0,1.36,.39,2.65,1.19,3.9,.51,.85,1.21,1.48,2.12,1.91,.9,.42,2.4,.95,4.49,1.57,3.16,.85,5.56,1.69,7.2,2.54,1.64,.85,3.02,2.15,4.15,3.9,1.52,2.43,2.29,4.97,2.29,7.62,0,3.95-1.4,7.31-4.19,10.08-2.79,2.76-6.14,4.15-10.03,4.15-3.67,0-6.89-1.24-9.65-3.73-2.77-2.48-4.4-5.62-4.91-9.4Z"/><path class="cls-1" d="M356.63,697.4l3.3,3.22c-3.9,3.73-8.67,5.59-14.31,5.59-6.55,0-12.12-2.32-16.72-6.94-4.6-4.63-6.9-10.19-6.9-16.68s2.31-12.15,6.94-16.81c4.63-4.66,10.19-6.99,16.68-6.99s11.53,2.29,15.45,6.86c3.92,4.57,5.88,10.22,5.88,16.94,0,1.07-.03,1.86-.08,2.37h-40.05c.62,4.69,2.71,8.62,6.27,11.81,3.56,3.19,7.73,4.78,12.53,4.78,4.4,0,8.07-1.38,11.01-4.15Zm-29.81-17.1h35.39c-.45-4.69-1.95-8.47-4.49-11.35-3.16-3.67-7.2-5.5-12.11-5.5s-8.99,1.62-12.57,4.87c-3.59,3.25-5.66,7.24-6.22,11.98Z"/><path class="cls-1" d="M378.9,661.33v2.37c2.99-3.27,6.41-4.91,10.25-4.91,3.27,0,6.18,1.04,8.72,3.13l-2.96,3.64c-1.69-1.41-3.61-2.12-5.76-2.12-2.43,0-4.74,1.2-6.94,3.6-2.2,2.4-3.3,5.12-3.3,8.17v28.45h-4.74v-42.34h4.74Z"/><path class="cls-1" d="M417.26,706.21l-17.44-44.88h5.08l12.36,31.92,12.45-31.92h5l-17.44,44.88Z"/><path class="cls-1" d="M469,697.4l3.3,3.22c-3.9,3.73-8.67,5.59-14.31,5.59-6.55,0-12.12-2.32-16.72-6.94-4.6-4.63-6.9-10.19-6.9-16.68s2.31-12.15,6.94-16.81c4.63-4.66,10.19-6.99,16.68-6.99s11.53,2.29,15.45,6.86c3.92,4.57,5.88,10.22,5.88,16.94,0,1.07-.03,1.86-.08,2.37h-40.05c.62,4.69,2.71,8.62,6.27,11.81,3.56,3.19,7.73,4.78,12.53,4.78,4.4,0,8.07-1.38,11.01-4.15Zm-29.81-17.1h35.39c-.45-4.69-1.95-8.47-4.49-11.35-3.16-3.67-7.2-5.5-12.11-5.5s-8.99,1.62-12.57,4.87c-3.59,3.25-5.66,7.24-6.22,11.98Z"/><path class="cls-1" d="M490.67,698.93h18.21v4.74h-26l19.9-37.6h-18.21v-4.74h26l-19.9,37.6Z"/><path class="cls-1" d="M525.47,696.98v6.69c0,3.73-1.19,6.86-3.56,9.4l-3.13-2.79c.68-.68,1.16-1.21,1.44-1.61,.28-.4,.56-1.02,.85-1.86,.28-.85,.42-1.89,.42-3.13h-2.79v-6.69h6.77Z"/><path class="cls-1" d="M565.86,661.33v4.91c4.23-4.97,9.74-7.45,16.51-7.45s12.18,2.29,16.72,6.86c4.54,4.57,6.82,10.16,6.82,16.77s-2.33,12.22-6.99,16.85-10.26,6.94-16.81,6.94-12.02-2.48-16.26-7.45v32.85h-4.74v-70.28h4.74Zm0,14.23v13.63c.79,2.65,2.06,4.94,3.81,6.86,3.33,3.67,7.48,5.5,12.45,5.5,5.31,0,9.82-1.86,13.55-5.59,3.73-3.73,5.59-8.24,5.59-13.55s-1.82-9.79-5.46-13.46c-3.64-3.67-8.12-5.5-13.42-5.5s-9.54,1.75-12.7,5.25c-1.75,1.98-3.02,4.26-3.81,6.86Z"/><path class="cls-1" d="M645.71,697.4l3.3,3.22c-3.9,3.73-8.67,5.59-14.31,5.59-6.55,0-12.12-2.32-16.72-6.94-4.6-4.63-6.9-10.19-6.9-16.68s2.31-12.15,6.94-16.81c4.63-4.66,10.19-6.99,16.68-6.99s11.53,2.29,15.45,6.86c3.92,4.57,5.88,10.22,5.88,16.94,0,1.07-.03,1.86-.08,2.37h-40.05c.62,4.69,2.71,8.62,6.27,11.81,3.56,3.19,7.73,4.78,12.53,4.78,4.4,0,8.07-1.38,11.01-4.15Zm-29.81-17.1h35.39c-.45-4.69-1.95-8.47-4.49-11.35-3.16-3.67-7.2-5.5-12.11-5.5s-8.99,1.62-12.57,4.87c-3.59,3.25-5.66,7.24-6.22,11.98Z"/><path class="cls-1" d="M667.98,661.33v2.37c2.99-3.27,6.41-4.91,10.25-4.91,3.27,0,6.18,1.04,8.72,3.13l-2.96,3.64c-1.69-1.41-3.61-2.12-5.76-2.12-2.43,0-4.74,1.2-6.94,3.6-2.2,2.4-3.3,5.12-3.3,8.17v28.45h-4.74v-42.34h4.74Z"/><path class="cls-1" d="M731.91,703.67h-4.66v-4.83c-4.18,4.91-9.6,7.37-16.26,7.37s-12.25-2.33-16.94-6.99-7.03-10.29-7.03-16.89,2.34-12.24,7.03-16.89c4.69-4.66,10.33-6.99,16.94-6.99s12.02,2.43,16.26,7.28v-29.81h4.66v67.74Zm-4.66-14.39v-13.97c-.9-2.71-2.17-4.97-3.81-6.77-3.16-3.61-7.31-5.42-12.45-5.42s-9.84,1.88-13.59,5.63c-3.75,3.75-5.63,8.29-5.63,13.59s1.88,9.84,5.63,13.59c3.75,3.75,8.28,5.63,13.59,5.63s9.23-1.83,12.45-5.5c1.69-1.86,2.96-4.12,3.81-6.77Z"/><path class="cls-1" d="M773.82,697.4l3.3,3.22c-3.9,3.73-8.67,5.59-14.31,5.59-6.55,0-12.12-2.32-16.72-6.94-4.6-4.63-6.9-10.19-6.9-16.68s2.31-12.15,6.94-16.81c4.63-4.66,10.19-6.99,16.68-6.99s11.53,2.29,15.45,6.86c3.92,4.57,5.88,10.22,5.88,16.94,0,1.07-.03,1.86-.08,2.37h-40.05c.62,4.69,2.71,8.62,6.27,11.81,3.56,3.19,7.73,4.78,12.53,4.78,4.4,0,8.07-1.38,11.01-4.15Zm-29.81-17.1h35.39c-.45-4.69-1.95-8.47-4.49-11.35-3.16-3.67-7.2-5.5-12.11-5.5s-8.99,1.62-12.57,4.87c-3.58,3.25-5.66,7.24-6.22,11.98Z"/><path class="cls-1" d="M795.5,698.93h18.21v4.74h-26l19.9-37.6h-18.21v-4.74h26l-19.9,37.6Z"/><path class="cls-1" d="M830.3,696.98v6.69c0,3.73-1.19,6.86-3.56,9.4l-3.13-2.79c.68-.68,1.16-1.21,1.44-1.61,.28-.4,.56-1.02,.85-1.86,.28-.85,.42-1.89,.42-3.13h-2.79v-6.69h6.77Z"/><path class="cls-1" d="M870.52,635.93v29.81c4.23-4.85,9.65-7.28,16.26-7.28s12.25,2.33,16.93,6.99c4.68,4.66,7.03,10.29,7.03,16.89s-2.34,12.24-7.03,16.89c-4.69,4.66-10.33,6.99-16.93,6.99s-12.08-2.46-16.26-7.37v4.83h-4.66v-67.74h4.66Zm0,39.37v13.97c.85,2.65,2.12,4.91,3.81,6.77,3.22,3.67,7.37,5.5,12.45,5.5s9.83-1.88,13.59-5.63c3.75-3.75,5.63-8.28,5.63-13.59s-1.88-9.84-5.63-13.59c-3.75-3.75-8.29-5.63-13.59-5.63s-9.29,1.81-12.45,5.42c-1.64,1.81-2.91,4.06-3.81,6.77Z"/><path class="cls-1" d="M956.04,661.33v25.74c0,5.25-1.86,9.75-5.59,13.51-3.73,3.75-8.24,5.63-13.55,5.63s-9.82-1.88-13.55-5.63c-3.73-3.75-5.59-8.26-5.59-13.51v-25.74h4.66v25.74c0,3.95,1.42,7.35,4.28,10.2s6.25,4.28,10.2,4.28,7.35-1.42,10.2-4.28c2.85-2.85,4.28-6.25,4.28-10.2v-25.74h4.66Z"/><path class="cls-1" d="M978.82,706.21l-17.44-44.88h5.08l12.36,31.92,12.45-31.92h5l-17.44,44.88Z"/><path class="cls-1" d="M1030.56,697.4l3.3,3.22c-3.9,3.73-8.67,5.59-14.31,5.59-6.55,0-12.12-2.32-16.72-6.94-4.6-4.63-6.9-10.19-6.9-16.68s2.31-12.15,6.94-16.81c4.63-4.66,10.19-6.99,16.68-6.99s11.53,2.29,15.45,6.86c3.92,4.57,5.88,10.22,5.88,16.94,0,1.07-.03,1.86-.08,2.37h-40.05c.62,4.69,2.71,8.62,6.27,11.81,3.56,3.19,7.73,4.78,12.53,4.78,4.4,0,8.07-1.38,11.01-4.15Zm-29.81-17.1h35.39c-.45-4.69-1.95-8.47-4.49-11.35-3.16-3.67-7.2-5.5-12.11-5.5s-8.99,1.62-12.57,4.87c-3.58,3.25-5.66,7.24-6.22,11.98Z"/><path class="cls-1" d="M1052.23,698.93h18.21v4.74h-26l19.9-37.6h-18.21v-4.74h26l-19.9,37.6Z"/></g><polygon class="cls-1" points="1120.8 675.6 1338.05 683.1 1120.8 690.6 1120.8 675.6 1120.8 675.6"/><polygon class="cls-1" points="236.1 690.6 18.85 683.1 236.1 675.6 236.1 690.6 236.1 690.6"/><path class="cls-1" d="M211.58,325.81C278.1,135.86,463.77,7.35,664.61,8.27c149.01-.63,293.52,70.51,383.59,189.24,29.65,38.98,53.41,82.35,69.45,128.3-39.62-93.38-107.51-173.69-193.22-227.65C768.45-.61,565.46-1.68,408.63,95.8c-87.56,53.84-156.85,135.27-197.06,230.01h0Z"/></svg>